<?xml version="1.0" encoding="UTF-8"?>
<svg width="841px" height="176px" viewBox="0 0 841 176" version="1.1" xmlns="http://www.w3.org/2000/svg" xmlns:xlink="http://www.w3.org/1999/xlink">
    <title>archetype-full-logo</title>
    <g id="archetype-full-logo" stroke="none" stroke-width="1" fill="none" fill-rule="evenodd">
        <g id="symbol" transform="translate(20.38, 13)" fill="#162CB9" fill-rule="nonzero">
            <path d="M67.7777564,0.536566286 C68.3854579,0.887422939 68.8901681,1.39197188 69.2412188,1.9995613 L121.83602,93.0292547 C122.9412,94.9420722 122.286481,97.3886431 120.373664,98.4938237 C119.765324,98.8453081 119.075137,99.0303613 118.372557,99.0303613 L75.7212999,99.0303613 C69.3539181,99.0303613 63.2475122,101.560658 58.746277,106.06426 L50.9840542,113.830564 C50.2338483,114.581165 49.216114,115.002881 48.1548837,115.002881 L4,115.002881 C1.790861,115.002881 0,113.21202 0,111.002881 C0,110.300734 0.184825058,109.610958 0.535898385,109.002881 L62.3136547,2.0006679 C63.4182242,0.0874974071 65.8645859,-0.568003214 67.7777564,0.536566286 Z M66.2725941,29.2354423 C65.7943015,28.9592999 65.182711,29.123175 64.9065687,29.6014677 L25.6884751,97.5291984 C25.600593,97.6814147 25.5545005,97.8541052 25.5545005,98.0298694 C25.5545005,98.582154 26.0028868,99.0291984 26.5551715,99.0291984 L55.8671821,99.0095298 C62.2135427,99.0052714 68.299868,96.4875226 72.7945705,92.0071252 L80.6567694,84.169949 C81.4065451,83.4225596 82.4220279,83.0028807 83.4806848,83.0028807 L95.7944111,83.0028807 C95.9702246,83.0028807 96.1429308,82.9565286 96.295118,82.8684976 C96.773185,82.5919649 96.9365608,81.9802409 96.660028,81.5021738 L66.638211,29.6007608 C66.5504572,29.4490529 66.4243735,29.3230722 66.2725941,29.2354423 Z" id="Shape"></path>
        </g>
        <g id="wordmark-v2" transform="translate(168.2178, 18)" fill="#162CB9" fill-rule="nonzero">
            <path d="M54.3495079,0 C56.0307833,0 57.5326085,1.05134648 58.1079814,2.63110379 L95.2580139,104.631104 C96.0140345,106.706851 94.9441843,109.002453 92.8684366,109.758474 C92.4297309,109.918257 91.9664382,110 91.4995404,110 L82.9294329,110 C81.2476444,110 79.7454759,108.948021 79.1704805,107.367581 L68.7254312,78.6581054 C68.5816825,78.2629949 68.2061402,78 67.7856929,78 L27.6566562,78 C27.236529,78 26.8612011,78.2626006 26.717217,78.6572845 L16.242254,107.370875 C15.6663138,108.949604 14.1650054,110 12.4845019,110 L4,110 C1.790861,110 0,108.209139 0,106 C0,105.532446 0.0819728513,105.068512 0.24219581,104.629267 L37.4486895,2.62926747 C38.0245888,1.05046434 39.5259345,0 41.2064937,0 L54.3495079,0 Z M47.4066708,22.985982 C47.1290916,23.0869708 46.91036,23.3055107 46.809128,23.5830013 L29.2035697,71.8404743 C29.2494479,72.1951046 29.4845391,72.5134543 29.8424319,72.6485619 C30.2113309,72.7878245 30.6276256,72.6973058 30.9053884,72.4174338 L40.070931,63.1822914 C40.8219277,62.425592 41.8439265,62 42.9100362,62 L61.2370493,62 C61.7893341,62 62.2370493,61.5522847 62.2370493,61 C62.2370493,60.8833921 62.2166544,60.7676827 62.1767863,60.6581019 L48.6883041,23.583825 C48.4994806,23.0648219 47.9256738,22.7971586 47.4066708,22.985982 Z M500.979358,35.3665368 L468.688215,124.199221 C465.240041,133.685118 456.225396,140 446.132222,140 L441.291856,140 C439.082717,140 437.291856,138.209139 437.291856,136 L437.291856,128 C437.291856,125.790861 439.082717,124 441.291856,124 L446.10102,124 C449.457583,124 452.457222,121.904677 453.612359,118.753142 L456.738149,110.225113 C456.819335,110.003617 456.8196,109.760551 456.738898,109.538878 L429.736548,35.3683711 C428.980818,33.2925179 430.050989,30.9970658 432.126842,30.2413353 C432.565393,30.0816771 433.028503,30 433.495213,30 L442.006315,30 C443.687954,30 445.190022,31.0517943 445.765128,32.6320358 L464.417007,83.8825887 C464.605883,84.4015724 465.179717,84.6691773 465.698701,84.4803009 C465.976362,84.3792502 466.195119,84.1605786 466.296279,83.8829573 L484.9716,32.6305614 C485.547128,31.0510859 487.048812,30 488.729876,30 L497.220026,30 C499.429165,30 501.220026,31.790861 501.220026,34 C501.220026,34.4660544 501.138578,34.9285234 500.979358,35.3665368 Z M106.782151,110 L114.782151,110 C116.99129,110 118.782151,108.209139 118.782151,106 L118.782151,54 C118.782151,49.581722 122.363873,46 126.782151,46 L140.782151,46 C142.99129,46 144.782151,44.209139 144.782151,42 L144.782151,34 C144.782151,31.790861 142.99129,30 140.782151,30 L126.782151,30 C113.527317,30 102.782151,40.745166 102.782151,54 L102.782151,106 C102.782151,108.209139 104.573012,110 106.782151,110 Z M393.782151,8 L401.782151,8 C403.99129,8 405.782151,9.790861 405.782151,12 L405.782151,30 L418.782151,30 C420.99129,30 422.782151,31.790861 422.782151,34 L422.782151,42 C422.782151,44.209139 420.99129,46 418.782151,46 L406.782151,46 C406.229866,46 405.782151,46.4477153 405.782151,47 L405.782151,86 C405.782151,90.418278 409.363873,94 413.782151,94 L421.782151,94 C423.99129,94 425.782151,95.790861 425.782151,98 L425.782151,106 C425.782151,108.209139 423.99129,110 421.782151,110 L413.782151,110 C400.527317,110 389.782151,99.254834 389.782151,86 L389.782151,47 C389.782151,46.4477153 389.334436,46 388.782151,46 L385.782151,46 C383.573012,46 381.782151,44.209139 381.782151,42 L381.782151,34 C381.782151,31.790861 383.573012,30 385.782151,30 L388.782151,30 C389.334436,30 389.782151,29.5522847 389.782151,29 L389.782151,12 C389.782151,9.790861 391.573012,8 393.782151,8 Z M524.782151,39.5857864 C524.782151,40.1380712 525.229866,40.5857864 525.782151,40.5857864 C526.047367,40.5857864 526.301721,40.4804296 526.489258,40.2928932 L535.610578,31.1715729 C536.360724,30.4214274 537.378139,30 538.439005,30 L552.782151,30 C566.036985,30 576.782151,40.745166 576.782151,54 L576.782151,86 C576.782151,99.254834 566.036985,110 552.782151,110 L525.782151,110 C525.229866,110 524.782151,110.447715 524.782151,111 L524.782151,136 C524.782151,138.209139 522.99129,140 520.782151,140 L512.782151,140 C510.573012,140 508.782151,138.209139 508.782151,136 L508.782151,34 C508.782151,31.790861 510.573012,30 512.782151,30 L520.782151,30 C522.99129,30 524.782151,31.790861 524.782151,34 L524.782151,39.5857864 Z M552.782151,46 L532.782151,46 C528.363873,46 524.782151,49.581722 524.782151,54 L524.782151,93 C524.782151,93.5522847 525.229866,94 525.782151,94 L552.782151,94 C557.200429,94 560.782151,90.418278 560.782151,86 L560.782151,54 C560.782151,49.581722 557.200429,46 552.782151,46 Z M245.782151,39.5857864 C245.782151,40.1380712 246.229866,40.5857864 246.782151,40.5857864 C247.047367,40.5857864 247.301721,40.4804296 247.489258,40.2928932 L256.610578,31.1715729 C257.360724,30.4214274 258.378139,30 259.439005,30 L273.782151,30 C287.036985,30 297.782151,40.745166 297.782151,54 L297.782151,106 C297.782151,108.209139 295.99129,110 293.782151,110 L285.782151,110 C283.573012,110 281.782151,108.209139 281.782151,106 L281.782151,54 C281.782151,49.581722 278.200429,46 273.782151,46 L253.782151,46 C249.363873,46 245.782151,49.581722 245.782151,54 L245.782151,106 C245.782151,108.209139 243.99129,110 241.782151,110 L233.782151,110 C231.573012,110 229.782151,108.209139 229.782151,106 L229.782151,4 C229.782151,1.790861 231.573012,0 233.782151,0 L241.782151,0 C243.99129,0 245.782151,1.790861 245.782151,4 L245.782151,39.5857864 Z M175.782151,110 L195.782151,110 C208.904437,110 219.566997,99.4686628 219.778936,86.3968839 L219.782151,86 C219.782151,83.790861 217.99129,82 215.782151,82 L207.782151,82 C205.639956,82 203.891072,83.6839685 203.787046,85.8003597 L203.782151,86 C203.782151,90.418278 200.200429,94 195.782151,94 L175.782151,94 C171.363873,94 167.782151,90.418278 167.782151,86 L167.782151,54 C167.782151,49.581722 171.363873,46 175.782151,46 L195.782151,46 C200.117065,46 203.646694,49.4478378 203.778344,53.7508207 L203.782151,54 C203.782151,56.209139 205.573012,58 207.782151,58 L215.782151,58 C217.924346,58 219.67323,56.3160315 219.777256,54.1996403 L219.782151,54 C219.782151,40.745166 209.036985,30 195.782151,30 L175.782151,30 C162.527317,30 151.782151,40.745166 151.782151,54 L151.782151,86 C151.782151,99.254834 162.527317,110 175.782151,110 Z M331.782151,110 L351.782151,110 C364.904437,110 375.566997,99.4686628 375.778936,86.3968839 L375.782151,86 C375.782151,83.790861 373.99129,82 371.782151,82 L363.782151,82 C361.639956,82 359.891072,83.6839685 359.787046,85.8003597 L359.782151,86 C359.782151,90.418278 356.200429,94 351.782151,94 L331.782151,94 C327.363873,94 323.782151,90.418278 323.782151,86 L323.782151,54 C323.782151,49.581722 327.363873,46 331.782151,46 L351.782151,46 C356.200429,46 359.782151,49.581722 359.782151,54 L359.782151,61 C359.782151,61.5522847 359.334436,62 358.782151,62 L324.782151,62 C324.229866,62 323.782151,61.5522847 323.782151,61 L323.782151,79 C323.782151,78.4477153 324.229866,78 324.782151,78 L371.782151,78 C373.99129,78 375.782151,76.209139 375.782151,74 L375.782151,54 C375.782151,40.745166 365.036985,30 351.782151,30 L331.782151,30 C318.527317,30 307.782151,40.745166 307.782151,54 L307.782151,86 C307.782151,99.254834 318.527317,110 331.782151,110 Z M610.782151,110 L630.782151,110 C643.904437,110 654.566997,99.4686628 654.778936,86.3968839 L654.782151,86 C654.782151,83.790861 652.99129,82 650.782151,82 L642.782151,82 C640.639956,82 638.891072,83.6839685 638.787046,85.8003597 L638.782151,86 C638.782151,90.418278 635.200429,94 630.782151,94 L610.782151,94 C606.363873,94 602.782151,90.418278 602.782151,86 L602.782151,54 C602.782151,49.581722 606.363873,46 610.782151,46 L630.782151,46 C635.200429,46 638.782151,49.581722 638.782151,54 L638.782151,61 C638.782151,61.5522847 638.334436,62 637.782151,62 L603.782151,62 C603.229866,62 602.782151,61.5522847 602.782151,61 L602.782151,79 C602.782151,78.4477153 603.229866,78 603.782151,78 L650.782151,78 C652.99129,78 654.782151,76.209139 654.782151,74 L654.782151,54 C654.782151,40.745166 644.036985,30 630.782151,30 L610.782151,30 C597.527317,30 586.782151,40.745166 586.782151,54 L586.782151,86 C586.782151,99.254834 597.527317,110 610.782151,110 Z" id="Shape"></path>
        </g>
    </g>
</svg>