<?xml version="1.0" encoding="UTF-8"?>
<svg width="115px" height="24px" viewBox="0 0 115 24" version="1.1" xmlns="http://www.w3.org/2000/svg" xmlns:xlink="http://www.w3.org/1999/xlink">
    <title>archetype-full-logo</title>
    <g id="Page-1" stroke="none" stroke-width="1" fill="none" fill-rule="evenodd">
        <g id="Artboard" transform="translate(-120, -5385)" fill="#FFFFFF" fill-rule="nonzero">
            <g id="Group-11" transform="translate(-461, 4187.0899)">
                <g id="Group-10" transform="translate(581, 1197.9101)">
                    <g id="archetype-full-logo" transform="translate(2.7653, 1.7727)">
                        <g id="symbol" transform="translate(-0, 0)">
                            <path d="M9.19659593,0.0731681299 C9.27905345,0.121012219 9.34753632,0.189814347 9.39516953,0.27266745 L16.5316278,12.6858075 C16.6815871,12.9466462 16.5927499,13.2802695 16.3332044,13.430976 C16.2506603,13.4789057 16.1570105,13.5041402 16.0616792,13.5041402 L10.2744357,13.5041402 C9.41046141,13.5041402 8.58189832,13.8491806 7.97113686,14.4633082 L6.91790007,15.5223497 C6.81610649,15.6247043 6.67801265,15.682211 6.53401693,15.682211 L0.542750095,15.682211 C0.242997495,15.682211 0,15.4380027 0,15.1367565 C0,15.0410092 0.0250784545,14.9469488 0.0727147249,14.8640292 L8.45518551,0.27281835 C8.60506181,0.0119314646 8.93700256,-0.0774549837 9.19659593,0.0731681299 Z M8.99236419,3.98665122 C8.92746585,3.94899544 8.84448066,3.97134205 8.80701158,4.03656377 L3.48560557,13.2994361 C3.47368107,13.3201929 3.46742689,13.3437416 3.46742689,13.3677095 C3.46742689,13.443021 3.52826733,13.5039816 3.60320546,13.5039816 L7.5804796,13.5012995 C8.44160156,13.5007188 9.26743997,13.1573894 9.87731502,12.5464262 L10.9441173,11.4777203 C11.0458525,11.3758036 11.1836409,11.3185746 11.3272874,11.3185746 L12.9981064,11.3185746 C13.0219621,11.3185746 13.0453962,11.3122539 13.0660461,11.3002497 C13.1309138,11.2625407 13.1530819,11.1791238 13.1155599,11.1139328 L9.04197384,4.03646738 C9.03006675,4.01577995 9.01295877,3.99860075 8.99236419,3.98665122 Z" id="Shape"></path>
                        </g>
                        <g id="wordmark-v2" transform="translate(20.0598, 0.6818)">
                            <path d="M7.37455014,-8.8817842e-16 C7.60267824,-8.8817842e-16 7.80645718,0.14336543 7.88452811,0.35878688 L12.925324,14.2678778 C13.0279066,14.5509343 12.8827413,14.8639709 12.6010882,14.9670646 C12.5415613,14.9888532 12.4786983,15 12.4153461,15 L11.2524894,15 C11.0242917,15 10.8204662,14.8565484 10.7424465,14.6410337 L9.32518358,10.7261053 C9.30567868,10.6722266 9.25472228,10.6363636 9.19767282,10.6363636 L3.7526632,10.6363636 C3.69565718,10.6363636 3.64472986,10.6721728 3.62519302,10.7259933 L2.20387122,14.641483 C2.12572332,14.8567642 1.92201451,15 1.69399115,15 L0.542750095,15 C0.242997495,15 3.55271368e-15,14.7557917 3.55271368e-15,14.4545455 C3.55271368e-15,14.3907881 0.0111226932,14.3275243 0.0328629497,14.2676274 L5.08131995,0.358536473 C5.1594623,0.143245138 5.36317618,-8.8817842e-16 5.5912071,-8.8817842e-16 L7.37455014,-8.8817842e-16 Z M6.43249378,3.1344521 C6.39482974,3.14822329 6.3651506,3.17802419 6.35141467,3.21586381 L3.96256006,9.79642831 C3.96878516,9.84478698 4.0006841,9.88819831 4.04924568,9.90662208 C4.09930068,9.92561244 4.15578668,9.91326898 4.19347563,9.87510461 L5.43712541,8.61576701 C5.53902628,8.51258073 5.67769877,8.45454545 5.82235657,8.45454545 L8.30910359,8.45454545 C8.38404174,8.45454545 8.44479111,8.39349337 8.44479111,8.31818182 C8.44479111,8.30228074 8.44202377,8.28650218 8.43661418,8.27155935 L6.60639542,3.21597613 C6.58077443,3.14520299 6.50291601,3.10870344 6.43249378,3.1344521 Z M67.9766486,4.82270956 L63.5951433,16.9362574 C63.1272692,18.2297889 61.9040943,19.0909091 60.5345766,19.0909091 L59.8777993,19.0909091 C59.5780467,19.0909091 59.3350492,18.8467008 59.3350492,18.5454545 L59.3350492,17.4545455 C59.3350492,17.1532992 59.5780467,16.9090909 59.8777993,16.9090909 L60.5303428,16.9090909 C60.9857866,16.9090909 61.3928001,16.6233651 61.5495378,16.1936102 L61.9736685,15.0306973 C61.9846843,15.0004932 61.9847203,14.9673478 61.9737701,14.9371197 L58.3098881,4.8229597 C58.2073449,4.53988881 58.3525538,4.22687261 58.6342211,4.12381845 C58.6937271,4.10204688 58.7565653,4.09090909 58.819892,4.09090909 L59.9747424,4.09090909 C60.2029198,4.09090909 60.4067318,4.23433559 60.4847664,4.44982306 L63.0155937,11.4385348 C63.0412218,11.5093053 63.119084,11.5457969 63.1895036,11.520041 C63.2271787,11.5062614 63.2568614,11.4764425 63.2705874,11.4385851 L65.8045955,4.44962201 C65.8826875,4.23423899 66.0864472,4.09090909 66.3145466,4.09090909 L67.4665541,4.09090909 C67.7663067,4.09090909 68.0093042,4.33511741 68.0093042,4.63636364 C68.0093042,4.69991651 67.9982528,4.76298047 67.9766486,4.82270956 Z M14.4890056,15 L15.5745058,15 C15.8742584,15 16.1172559,14.7557917 16.1172559,14.4545455 L16.1172559,7.36363636 C16.1172559,6.76114391 16.6032509,6.27272727 17.2027561,6.27272727 L19.1023815,6.27272727 C19.4021341,6.27272727 19.6451316,6.02851895 19.6451316,5.72727273 L19.6451316,4.63636364 C19.6451316,4.33511741 19.4021341,4.09090909 19.1023815,4.09090909 L17.2027561,4.09090909 C15.4042405,4.09090909 13.9462556,5.556159 13.9462556,7.36363636 L13.9462556,14.4545455 C13.9462556,14.7557917 14.189253,15 14.4890056,15 Z M53.431325,1.09090909 L54.5168252,1.09090909 C54.8165778,1.09090909 55.0595753,1.33511741 55.0595753,1.63636364 L55.0595753,4.09090909 L56.8235131,4.09090909 C57.1232657,4.09090909 57.3662632,4.33511741 57.3662632,4.63636364 L57.3662632,5.72727273 C57.3662632,6.02851895 57.1232657,6.27272727 56.8235131,6.27272727 L55.1952628,6.27272727 C55.1203246,6.27272727 55.0595753,6.33377935 55.0595753,6.40909091 L55.0595753,11.7272727 C55.0595753,12.3297652 55.5455703,12.8181818 56.1450755,12.8181818 L57.2305757,12.8181818 C57.5303283,12.8181818 57.7733258,13.0623901 57.7733258,13.3636364 L57.7733258,14.4545455 C57.7733258,14.7557917 57.5303283,15 57.2305757,15 L56.1450755,15 C54.3465599,15 52.8885749,13.5347501 52.8885749,11.7272727 L52.8885749,6.40909091 C52.8885749,6.33377935 52.8278255,6.27272727 52.7528874,6.27272727 L52.3458248,6.27272727 C52.0460722,6.27272727 51.8030747,6.02851895 51.8030747,5.72727273 L51.8030747,4.63636364 C51.8030747,4.33511741 52.0460722,4.09090909 52.3458248,4.09090909 L52.7528874,4.09090909 C52.8278255,4.09090909 52.8885749,4.02985701 52.8885749,3.95454545 L52.8885749,1.63636364 C52.8885749,1.33511741 53.1315724,1.09090909 53.431325,1.09090909 Z M71.2063906,5.39806179 C71.2063906,5.47337334 71.26714,5.53442542 71.3420781,5.53442542 C71.3780647,5.53442542 71.4125774,5.52005858 71.4380237,5.49448544 L72.6756731,4.25066903 C72.7774585,4.14837646 72.9155091,4.09090909 73.0594553,4.09090909 L75.0056413,4.09090909 C76.8041569,4.09090909 78.2621419,5.556159 78.2621419,7.36363636 L78.2621419,11.7272727 C78.2621419,13.5347501 76.8041569,15 75.0056413,15 L71.3420781,15 C71.26714,15 71.2063906,15.0610521 71.2063906,15.1363636 L71.2063906,18.5454545 C71.2063906,18.8467008 70.9633931,19.0909091 70.6636405,19.0909091 L69.5781403,19.0909091 C69.2783877,19.0909091 69.0353902,18.8467008 69.0353902,18.5454545 L69.0353902,4.63636364 C69.0353902,4.33511741 69.2783877,4.09090909 69.5781403,4.09090909 L70.6636405,4.09090909 C70.9633931,4.09090909 71.2063906,4.33511741 71.2063906,4.63636364 L71.2063906,5.39806179 Z M75.0056413,6.27272727 L72.2918908,6.27272727 C71.6923856,6.27272727 71.2063906,6.76114391 71.2063906,7.36363636 L71.2063906,12.6818182 C71.2063906,12.7571297 71.26714,12.8181818 71.3420781,12.8181818 L75.0056413,12.8181818 C75.6051465,12.8181818 76.0911415,12.3297652 76.0911415,11.7272727 L76.0911415,7.36363636 C76.0911415,6.76114391 75.6051465,6.27272727 75.0056413,6.27272727 Z M33.3495715,5.39806179 C33.3495715,5.47337334 33.4103208,5.53442542 33.485259,5.53442542 C33.5212456,5.53442542 33.5557582,5.52005858 33.5812046,5.49448544 L34.8188539,4.25066903 C34.9206393,4.14837646 35.0586899,4.09090909 35.2026362,4.09090909 L37.1488221,4.09090909 C38.9473377,4.09090909 40.4053227,5.556159 40.4053227,7.36363636 L40.4053227,14.4545455 C40.4053227,14.7557917 40.1623252,15 39.8625726,15 L38.7770724,15 C38.4773198,15 38.2343223,14.7557917 38.2343223,14.4545455 L38.2343223,7.36363636 C38.2343223,6.76114391 37.7483273,6.27272727 37.1488221,6.27272727 L34.4350717,6.27272727 C33.8355664,6.27272727 33.3495715,6.76114391 33.3495715,7.36363636 L33.3495715,14.4545455 C33.3495715,14.7557917 33.106574,15 32.8068214,15 L31.7213212,15 C31.4215686,15 31.1785711,14.7557917 31.1785711,14.4545455 L31.1785711,0.545454545 C31.1785711,0.244208318 31.4215686,-8.8817842e-16 31.7213212,-8.8817842e-16 L32.8068214,-8.8817842e-16 C33.106574,-8.8817842e-16 33.3495715,0.244208318 33.3495715,0.545454545 L33.3495715,5.39806179 Z M23.8514448,15 L26.5651953,15 C28.3457257,15 29.7925021,13.5639086 29.8212596,11.7813933 L29.8216958,11.7272727 C29.8216958,11.4260265 29.5786983,11.1818182 29.2789457,11.1818182 L28.1934456,11.1818182 C27.9027764,11.1818182 27.6654747,11.4114502 27.6513597,11.700049 L27.6506955,11.7272727 C27.6506955,12.3297652 27.1647005,12.8181818 26.5651953,12.8181818 L23.8514448,12.8181818 C23.2519396,12.8181818 22.7659446,12.3297652 22.7659446,11.7272727 L22.7659446,7.36363636 C22.7659446,6.76114391 23.2519396,6.27272727 23.8514448,6.27272727 L26.5651953,6.27272727 C27.1533891,6.27272727 27.6323156,6.74288697 27.6501789,7.32965736 L27.6506955,7.36363636 C27.6506955,7.66488259 27.893693,7.90909091 28.1934456,7.90909091 L29.2789457,7.90909091 C29.5696149,7.90909091 29.8069166,7.67945884 29.8210316,7.39086005 L29.8216958,7.36363636 C29.8216958,5.556159 28.3637109,4.09090909 26.5651953,4.09090909 L23.8514448,4.09090909 C22.0529292,4.09090909 20.5949442,5.556159 20.5949442,7.36363636 L20.5949442,11.7272727 C20.5949442,13.5347501 22.0529292,15 23.8514448,15 Z M45.0186985,15 L47.732449,15 C49.5129794,15 50.9597558,13.5639086 50.9885133,11.7813933 L50.9889496,11.7272727 C50.9889496,11.4260265 50.7459521,11.1818182 50.4461995,11.1818182 L49.3606993,11.1818182 C49.0700301,11.1818182 48.8327284,11.4114502 48.8186134,11.700049 L48.8179492,11.7272727 C48.8179492,12.3297652 48.3319542,12.8181818 47.732449,12.8181818 L45.0186985,12.8181818 C44.4191933,12.8181818 43.9331983,12.3297652 43.9331983,11.7272727 L43.9331983,7.36363636 C43.9331983,6.76114391 44.4191933,6.27272727 45.0186985,6.27272727 L47.732449,6.27272727 C48.3319542,6.27272727 48.8179492,6.76114391 48.8179492,7.36363636 L48.8179492,8.31818182 C48.8179492,8.39349337 48.7571998,8.45454545 48.6822617,8.45454545 L44.0688858,8.45454545 C43.9939477,8.45454545 43.9331983,8.39349337 43.9331983,8.31818182 L43.9331983,10.7727273 C43.9331983,10.6974157 43.9939477,10.6363636 44.0688858,10.6363636 L50.4461995,10.6363636 C50.7459521,10.6363636 50.9889496,10.3921553 50.9889496,10.0909091 L50.9889496,7.36363636 C50.9889496,5.556159 49.5309646,4.09090909 47.732449,4.09090909 L45.0186985,4.09090909 C43.2201829,4.09090909 41.7621979,5.556159 41.7621979,7.36363636 L41.7621979,11.7272727 C41.7621979,13.5347501 43.2201829,15 45.0186985,15 Z M82.8755177,15 L85.5892681,15 C87.3697986,15 88.816575,13.5639086 88.8453324,11.7813933 L88.8457687,11.7272727 C88.8457687,11.4260265 88.6027712,11.1818182 88.3030186,11.1818182 L87.2175184,11.1818182 C86.9268492,11.1818182 86.6895476,11.4114502 86.6754326,11.700049 L86.6747683,11.7272727 C86.6747683,12.3297652 86.1887733,12.8181818 85.5892681,12.8181818 L82.8755177,12.8181818 C82.2760125,12.8181818 81.7900175,12.3297652 81.7900175,11.7272727 L81.7900175,7.36363636 C81.7900175,6.76114391 82.2760125,6.27272727 82.8755177,6.27272727 L85.5892681,6.27272727 C86.1887733,6.27272727 86.6747683,6.76114391 86.6747683,7.36363636 L86.6747683,8.31818182 C86.6747683,8.39349337 86.614019,8.45454545 86.5390808,8.45454545 L81.925705,8.45454545 C81.8507668,8.45454545 81.7900175,8.39349337 81.7900175,8.31818182 L81.7900175,10.7727273 C81.7900175,10.6974157 81.8507668,10.6363636 81.925705,10.6363636 L88.3030186,10.6363636 C88.6027712,10.6363636 88.8457687,10.3921553 88.8457687,10.0909091 L88.8457687,7.36363636 C88.8457687,5.556159 87.3877837,4.09090909 85.5892681,4.09090909 L82.8755177,4.09090909 C81.0770021,4.09090909 79.6190171,5.556159 79.6190171,7.36363636 L79.6190171,11.7272727 C79.6190171,13.5347501 81.0770021,15 82.8755177,15 Z" id="Shape"></path>
                        </g>
                    </g>
                </g>
            </g>
        </g>
    </g>
</svg>