<?xml version="1.0" encoding="UTF-8"?>
<svg width="128px" height="72px" viewBox="0 0 128 72" version="1.1" xmlns="http://www.w3.org/2000/svg" xmlns:xlink="http://www.w3.org/1999/xlink">
    <title>cube-white-top</title>
    <g id="cube-white-top" stroke="none" stroke-width="1" fill="none" fill-rule="evenodd">
        <g id="Group" transform="translate(64, 96) scale(-1, 1) translate(-64, -96)">
            <path d="M57.0681893,4.02492236 C61.4318654,1.84308431 66.5681346,1.84308431 70.9318107,4.02492236 L123.354102,30.236068 C124.624542,30.871288 125.661017,31.8381414 126.379881,33.0012886 C127.098746,34.1644357 127.5,35.5238767 127.5,36.9442719 L127.5,155.055728 C127.5,156.476123 127.098746,157.835564 126.379881,158.998711 C125.661017,160.161859 124.624542,161.128712 123.354102,161.763932 L67.354102,189.763932 C65.2426458,190.81966 62.7573542,190.81966 60.645898,189.763932 L4.64589803,161.763932 C3.37545793,161.128712 2.33898342,160.161859 1.62011894,158.998711 C0.901254455,157.835564 0.5,156.476123 0.5,155.055728 L0.5,36.9442719 C0.5,35.5238767 0.901254455,34.1644357 1.62011894,33.0012886 C2.33898342,31.8381414 3.37545793,30.871288 4.64589803,30.236068 Z" id="Path-55" stroke="#162CB9" fill="#FFFFFF"></path>
            <path d="M116.422291,37.7888544 L72.8445825,59.5777088 C67.424038,62.287981 64,67.8281909 64,73.8885438 L64,179.055728 C64,183.474006 67.581722,187.055728 72,187.055728 C73.2419608,187.055728 74.4668653,186.766567 75.5777088,186.211146 L123.577709,162.211146 C126.287981,160.85601 128,158.085905 128,155.055728 L128,44.9442719 C128,40.5259939 124.418278,36.9442719 120,36.9442719 C118.758039,36.9442719 117.533135,37.2334326 116.422291,37.7888544 Z" id="Path-60" fill="#162CB9" opacity="0.200000003"></path>
        </g>
    </g>
</svg>