<?xml version="1.0" encoding="UTF-8"?>
<svg width="164px" height="136px" viewBox="0 0 164 136" version="1.1" xmlns="http://www.w3.org/2000/svg" xmlns:xlink="http://www.w3.org/1999/xlink">
    <title>hand</title>
    <defs>
        <path d="M118.343917,59.2220381 C111.732548,38.1766968 105.890572,25.1290574 100.817988,20.0791198 C95.7454033,15.0291823 90.3326501,14.4589624 84.5797278,18.3684602 C79.2893751,15.4653959 75.5704429,14.2031958 73.4229313,14.5818601 C71.2754196,14.9605243 69.9857984,15.6389087 69.5540677,16.617013 C66.1607782,14.1828122 62.840246,13.2520469 59.5924713,13.8247173 C56.3446965,14.3973876 53.5079971,15.3281528 51.082373,16.617013 C28.7261903,7.25845459 15.0058457,1.80663895 9.92133908,0.26156611 C2.29457921,-2.05604314 -6.65984923,11.6020586 7.37667798,18.5544343 C11.0269634,20.3624424 22.6652885,24.8035363 39.0326426,35.72888 C50.8185278,43.5960555 55.8643612,55.6696338 50.9766996,60.757042 C47.3839365,64.4966324 35.8521977,56.6775541 33.2656332,54.3186924 C26.5098315,48.1576236 23.9299663,39.437374 14.4211414,42.888929 C4.91231653,46.3404841 10.2875783,61.3467134 18.8061467,70.7739817 C27.3247151,80.2012501 50.4934398,93.88662 60.7987792,95.9538286 C67.6690055,97.3319677 76.123536,98.4871495 86.1623707,99.4193739 L118.343917,59.2220381 Z" id="path-1"></path>
        <path d="M35.1322415,65.7108376 C46.7764697,65.7108376 64.5508258,60.7563549 67.2280128,53.8397587 C69.9051998,46.9231624 70.065798,34.208619 70.065798,31.1941771 C70.065798,22.3576211 55.7387115,15.1941771 38.0655995,15.1941771 C20.3924875,15.1941771 6.06559954,22.3576211 6.06559954,31.1941771 C6.06559954,35.9977263 4.67607177,50.5063505 8.38353023,56.0409646 C12.0909887,61.5755788 27.0662279,65.7108376 35.1322415,65.7108376 Z" id="path-3"></path>
        <ellipse id="path-5" cx="129.641016" cy="99.2820323" rx="23" ry="11.5"></ellipse>
    </defs>
    <g id="hand" stroke="none" stroke-width="1" fill="none" fill-rule="evenodd">
        <path d="M65.071035,70.4720613 C65.5985752,64.4708912 60.97353,57.9420081 51.1958994,50.885412 C51.0749617,59.1151778 51.2582737,64.6126099 51.7458351,67.3777084 C52.2333966,70.1428069 53.1280564,72.9312038 54.4298146,75.7428993 C60.9964213,78.2301774 64.5434947,76.4732315 65.071035,70.4720613 Z" id="Path-102" fill="#FFFFFF"></path>
        <g id="Path-104" transform="translate(12.2231, 15.1565)">
            <mask id="mask-2" fill="white">
                <use xlink:href="#path-1"></use>
            </mask>
            <use id="Mask" stroke="#162CB9" fill="#FFFFFF" stroke-linecap="round" stroke-linejoin="round" xlink:href="#path-1"></use>
            <path d="M52.8884466,53.3526136 C50.8523248,43.9851115 47.5585117,29.4800326 32.776903,22.843468 C17.9952943,16.2069033 5.77690298,9.84346798 1.77690298,9.84346798 C-2.22309702,9.84346798 -3.04369548,24.3816861 -1.22309702,25.843468 C-0.00936470914,26.8179892 4.32396862,28.4846559 11.776903,30.843468 L22.776903,39.843468 L34.776903,47.843468 L40.776903,51.843468 C47.1693168,48.9799914 51.206498,49.4830399 52.8884466,53.3526136 Z" id="Path-106" fill="#162CB9" opacity="0.100000001" mask="url(#mask-2)"></path>
            <path d="M9.71572644,54.8919822 C8.64577887,49.9664525 12.9169367,42.7256576 17.5871067,51.4143892 C22.2572768,60.1031208 32.776903,70.843468 48.776903,74.843468 C59.4435697,77.5101346 71.1102363,77.843468 83.776903,75.843468 C82.0080275,84.307513 83.2695641,89.1212685 87.5615127,90.2847346 C93.9994356,92.0299337 95.9245648,94.6156717 96.6452779,102.07869 C97.1257533,107.054036 98.7166337,110.307244 101.417919,111.838313 L80.776903,115.843468 L77.4239018,111.150758 C67.244864,113.217246 59.6958644,113.44815 54.776903,111.843468 C47.3984608,109.436446 13.5144085,91.9838938 4.77690298,83.843468 C-3.96060252,75.7030421 10.785674,59.8175118 9.71572644,54.8919822 Z" fill="#162CB9" opacity="0.100000001" mask="url(#mask-2)"></path>
        </g>
        <path d="M51.2557396,50.885412 C51.0949085,59.1151778 51.2582737,64.6126099 51.7458351,67.3777084 C52.2333966,70.1428069 53.1654946,72.7912273 54.542129,75.3229697" id="Path-102" stroke="#162CB9" stroke-linecap="round" stroke-linejoin="round"></path>
        <path d="M65.071035,70.4720613 C65.5985752,64.4708912 60.97353,57.9420081 51.1958994,50.885412 C51.0749617,59.1151778 51.2582737,64.6126099 51.7458351,67.3777084 C52.2333966,70.1428069 53.1280564,72.9312038 54.4298146,75.7428993 C60.9964213,78.2301774 64.5434947,76.4732315 65.071035,70.4720613 Z" id="Path-102" fill="#162CB9" opacity="0.2"></path>
        <path d="M96.8028248,33.5249922 C99.5777468,35.0761562 102.063107,37.2019255 104.258907,39.9023001" id="Path-105" stroke="#162CB9" fill="#FFFFFF" stroke-linecap="round" stroke-linejoin="round"></path>
        <path d="M81.5559866,31.6344729 C84.0351896,33.5093359 86.3627658,35.3841989 88.5387153,37.2590619" id="Path-105" stroke="#162CB9" fill="#FFFFFF" stroke-linecap="round" stroke-linejoin="round"></path>
        <path d="M63.0754218,31.6344729 C67.1844116,33.286191 70.8412787,35.5449051 74.0460233,38.4106154" id="Path-105" stroke="#162CB9" fill="#FFFFFF" stroke-linecap="round" stroke-linejoin="round"></path>
        <g id="Path-104" transform="translate(83.7845, 55.3483)">
            <mask id="mask-4" fill="white">
                <use xlink:href="#path-3" transform="translate(37.9382, 40.4525) scale(-1, 1) rotate(-300) translate(-37.9382, -40.4525)"></use>
            </mask>
            <use id="Mask" stroke="#162CB9" fill="#FFFFFF" stroke-linecap="round" stroke-linejoin="round" transform="translate(37.9382, 40.4525) scale(-1, 1) rotate(-300) translate(-37.9382, -40.4525)" xlink:href="#path-3"></use>
            <path d="M-61.845687,14.7001815 C-62.9156346,9.77465185 -58.6444768,2.53385697 -53.9743067,11.2225886 C-49.3041366,19.9113201 -38.1566314,30.6156679 -23.0236893,33.3205107 C-12.9350612,35.1237392 -0.921060021,35.1237392 13.0183143,33.3205107 C11.4838557,42.6368447 12.5495808,48.0805636 16.2154895,49.6516673 C23.2154895,52.6516673 30.9800261,51.5935212 33.2154895,42.6516673 C34.2154895,38.6516673 43.0117566,29.050346 46.2154895,26.6516673 C57.4300325,18.2551858 66.8720242,22.0950669 67.2154895,25.6516673 C67.6959649,30.627013 70.3626316,47.2936797 75.2154895,75.6516673 L9.21548954,75.6516673 L5.8624884,70.9589569 C-4.31654941,73.0254454 -11.865549,73.2563489 -16.7845105,71.6516673 C-24.1629526,69.244645 -58.047005,51.7920932 -66.7845105,43.6516673 C-75.522016,35.5112415 -60.7757394,19.6257112 -61.845687,14.7001815 Z" fill="#162CB9" opacity="0.100000001" mask="url(#mask-4)"></path>
        </g>
        <g id="Oval" stroke-linecap="round" stroke-linejoin="round" transform="translate(129.641, 99.282) scale(-1, 1) rotate(-300) translate(-129.641, -99.282)">
            <use fill="#FFFFFF" xlink:href="#path-5"></use>
            <use stroke="#162CB9" stroke-width="1" fill-opacity="0.2" fill="#162CB9" xlink:href="#path-5"></use>
        </g>
        <path d="M63.0754218,64.0154618 C61.6354628,64.8342929 60.0923956,65.2437085 58.4462205,65.2437085" id="Path-103" stroke="#162CB9" fill="#FFFFFF" stroke-linecap="round" stroke-linejoin="round"></path>
    </g>
</svg>