<?xml version="1.0" encoding="UTF-8"?>
<svg width="196px" height="196px" viewBox="0 0 196 196" version="1.1" xmlns="http://www.w3.org/2000/svg" xmlns:xlink="http://www.w3.org/1999/xlink">
    <title>sparkles</title>
    <g id="sparkles" stroke="none" stroke-width="1" fill="none" fill-rule="evenodd">
        <path d="M108.384958,125.131964 L106.473175,124.61722 C106.132294,124.525439 105.930359,124.174696 106.02214,123.833815 C106.081369,123.613837 106.253198,123.442008 106.473175,123.38278 L108.384958,122.868036 C108.620563,122.804599 108.804599,122.620563 108.868036,122.384958 L109.38278,120.473175 C109.474561,120.132294 109.825304,119.930359 110.166185,120.02214 C110.386163,120.081369 110.557992,120.253198 110.61722,120.473175 L111.131964,122.384958 C111.195401,122.620563 111.379437,122.804599 111.615042,122.868036 L113.526825,123.38278 C113.867706,123.474561 114.069641,123.825304 113.97786,124.166185 C113.918631,124.386163 113.746802,124.557992 113.526825,124.61722 L111.615042,125.131964 C111.379437,125.195401 111.195401,125.379437 111.131964,125.615042 L110.61722,127.526825 C110.525439,127.867706 110.174696,128.069641 109.833815,127.97786 C109.613837,127.918631 109.442008,127.746802 109.38278,127.526825 L108.868036,125.615042 C108.804599,125.379437 108.620563,125.195401 108.384958,125.131964 Z" id="Star" fill="#162CB9"></path>
        <path d="M135.384958,164.131964 L133.473175,163.61722 C133.132294,163.525439 132.930359,163.174696 133.02214,162.833815 C133.081369,162.613837 133.253198,162.442008 133.473175,162.38278 L135.384958,161.868036 C135.620563,161.804599 135.804599,161.620563 135.868036,161.384958 L136.38278,159.473175 C136.474561,159.132294 136.825304,158.930359 137.166185,159.02214 C137.386163,159.081369 137.557992,159.253198 137.61722,159.473175 L138.131964,161.384958 C138.195401,161.620563 138.379437,161.804599 138.615042,161.868036 L140.526825,162.38278 C140.867706,162.474561 141.069641,162.825304 140.97786,163.166185 C140.918631,163.386163 140.746802,163.557992 140.526825,163.61722 L138.615042,164.131964 C138.379437,164.195401 138.195401,164.379437 138.131964,164.615042 L137.61722,166.526825 C137.525439,166.867706 137.174696,167.069641 136.833815,166.97786 C136.613837,166.918631 136.442008,166.746802 136.38278,166.526825 L135.868036,164.615042 C135.804599,164.379437 135.620563,164.195401 135.384958,164.131964 Z" id="Star" fill="#162CB9"></path>
        <path d="M81.981197,66.4149554 L79.5914689,65.7715254 C79.1653672,65.6567983 78.9129482,65.2183699 79.0276754,64.7922682 C79.101711,64.5172965 79.3164973,64.3025102 79.5914689,64.2284746 L81.981197,63.5850446 C82.2757037,63.5057492 82.5057492,63.2757037 82.5850446,62.981197 L83.2284746,60.5914689 C83.3432017,60.1653672 83.7816301,59.9129482 84.2077318,60.0276754 C84.4827035,60.101711 84.6974898,60.3164973 84.7715254,60.5914689 L85.4149554,62.981197 C85.4942508,63.2757037 85.7242963,63.5057492 86.018803,63.5850446 L88.4085311,64.2284746 C88.8346328,64.3432017 89.0870518,64.7816301 88.9723246,65.2077318 C88.898289,65.4827035 88.6835027,65.6974898 88.4085311,65.7715254 L86.018803,66.4149554 C85.7242963,66.4942508 85.4942508,66.7242963 85.4149554,67.018803 L84.7715254,69.4085311 C84.6567983,69.8346328 84.2183699,70.0870518 83.7922682,69.9723246 C83.5172965,69.898289 83.3025102,69.6835027 83.2284746,69.4085311 L82.5850446,67.018803 C82.5057492,66.7242963 82.2757037,66.4942508 81.981197,66.4149554 Z" id="Star" fill="#162CB9"></path>
        <path d="M150.981197,29.4149554 L148.591469,28.7715254 C148.165367,28.6567983 147.912948,28.2183699 148.027675,27.7922682 C148.101711,27.5172965 148.316497,27.3025102 148.591469,27.2284746 L150.981197,26.5850446 C151.275704,26.5057492 151.505749,26.2757037 151.585045,25.981197 L152.228475,23.5914689 C152.343202,23.1653672 152.78163,22.9129482 153.207732,23.0276754 C153.482703,23.101711 153.69749,23.3164973 153.771525,23.5914689 L154.414955,25.981197 C154.494251,26.2757037 154.724296,26.5057492 155.018803,26.5850446 L157.408531,27.2284746 C157.834633,27.3432017 158.087052,27.7816301 157.972325,28.2077318 C157.898289,28.4827035 157.683503,28.6974898 157.408531,28.7715254 L155.018803,29.4149554 C154.724296,29.4942508 154.494251,29.7242963 154.414955,30.018803 L153.771525,32.4085311 C153.656798,32.8346328 153.21837,33.0870518 152.792268,32.9723246 C152.517297,32.898289 152.30251,32.6835027 152.228475,32.4085311 L151.585045,30.018803 C151.505749,29.7242963 151.275704,29.4942508 150.981197,29.4149554 Z" id="Star" fill="#162CB9"></path>
        <path d="M175.981197,120.414955 L173.591469,119.771525 C173.165367,119.656798 172.912948,119.21837 173.027675,118.792268 C173.101711,118.517297 173.316497,118.30251 173.591469,118.228475 L175.981197,117.585045 C176.275704,117.505749 176.505749,117.275704 176.585045,116.981197 L177.228475,114.591469 C177.343202,114.165367 177.78163,113.912948 178.207732,114.027675 C178.482703,114.101711 178.69749,114.316497 178.771525,114.591469 L179.414955,116.981197 C179.494251,117.275704 179.724296,117.505749 180.018803,117.585045 L182.408531,118.228475 C182.834633,118.343202 183.087052,118.78163 182.972325,119.207732 C182.898289,119.482703 182.683503,119.69749 182.408531,119.771525 L180.018803,120.414955 C179.724296,120.494251 179.494251,120.724296 179.414955,121.018803 L178.771525,123.408531 C178.656798,123.834633 178.21837,124.087052 177.792268,123.972325 C177.517297,123.898289 177.30251,123.683503 177.228475,123.408531 L176.585045,121.018803 C176.505749,120.724296 176.275704,120.494251 175.981197,120.414955 Z" id="Star" fill="#162CB9"></path>
    </g>
</svg>