<?xml version="1.0" encoding="UTF-8"?>
<svg width="196px" height="196px" viewBox="0 0 196 196" version="1.1" xmlns="http://www.w3.org/2000/svg" xmlns:xlink="http://www.w3.org/1999/xlink">
    <title>step-3</title>
    <defs>
        <path d="M63.9542485,145.480921 C68.4737354,145.480921 84.0366918,145.361629 87.9847769,142.17215 C100.511441,132.052425 98.1017078,105.865271 98.1017078,77.1860027 C98.1017078,47.5305701 98.035118,18.537955 84.8286563,9.10192504 C81.2380432,6.53642842 67.9856532,8.89108407 63.9542485,8.89108407 C45.0951274,8.89108407 29.8067892,39.4677606 29.8067892,77.1860027 C29.8067892,114.904245 45.0951274,145.480921 63.9542485,145.480921 Z" id="path-1"></path>
        <filter x="-32.9%" y="-16.4%" width="165.7%" height="132.7%" filterUnits="objectBoundingBox" id="filter-2">
            <feOffset dx="-20" dy="-44" in="SourceAlpha" result="shadowOffsetInner1"></feOffset>
            <feComposite in="shadowOffsetInner1" in2="SourceAlpha" operator="arithmetic" k2="-1" k3="1" result="shadowInnerInner1"></feComposite>
            <feColorMatrix values="0 0 0 0 0.0862745098   0 0 0 0 0.17254902   0 0 0 0 0.725490196  0 0 0 0.2 0" type="matrix" in="shadowInnerInner1"></feColorMatrix>
        </filter>
        <path d="M15.4602058,72.5130493 L1.73491681,65.6590493 C-0.578305605,64.5040493 -0.578305605,60.0720493 1.73491681,55.7600493 C4.04898564,51.4480493 7.80109504,48.8890493 10.1143175,50.0440493 L19.6499061,54.8070493 L45.8858941,5.91404932 C48.1991166,1.60304932 51.7425799,-0.719774955 54.2644484,0.199049324 C56.7863169,1.1178736 65.8243796,3.93181321 63.5103108,8.24381321 L23.8396064,66.7980493 C22.7282778,68.8680493 21.2208321,70.6340493 19.6499061,71.7060493 C18.0789801,72.7780493 16.5715344,73.0680493 15.4602058,72.5130493 Z" id="path-3"></path>
        <path d="M27.6499061,75.7060493 L27.6499061,75.7060493 C26.0789801,76.7780493 24.5715344,77.0680493 23.4602058,76.5130493 L9.73491681,69.6590493 C7.4216944,68.5040493 7.4216944,64.0720493 9.73491681,59.7600493 C12.0489856,55.4480493 15.801095,52.8890493 18.1143175,54.0440493 L27.6499061,58.8070493 L53.8858941,9.91404932 C56.1991166,5.60304932 59.951226,3.04304932 62.2644484,4.19904932 C64.5785172,5.35404932 64.5785172,9.78604932 62.2644484,14.0980493 L31.8396064,70.7980493 C30.7282778,72.8680493 29.2208321,74.6340493 27.6499061,75.7060493" id="path-5"></path>
    </defs>
    <g id="step-3" stroke="none" stroke-width="1" fill="none" fill-rule="evenodd">
        <g id="Group-2" transform="translate(27, 16)" stroke-linejoin="round">
            <g id="Oval" transform="translate(64.0473, 76.6926) rotate(30) translate(-64.0473, -76.6926)">
                <use fill="#FFFFFF" fill-rule="evenodd" xlink:href="#path-1"></use>
                <use fill="black" fill-opacity="1" filter="url(#filter-2)" xlink:href="#path-1"></use>
                <use stroke="#162CB9" stroke-width="1" xlink:href="#path-1"></use>
            </g>
            <ellipse id="Oval" stroke="#162CB9" fill="#FFFFFF" transform="translate(78.0979, 84.2623) rotate(30) translate(-78.0979, -84.2623)" cx="78.0979041" cy="84.2623378" rx="34.1474593" ry="68.2949186"></ellipse>
        </g>
        <g id="Group-2" transform="translate(76.0811, 62.0782)">
            <g id="Path">
                <mask id="mask-4" fill="white">
                    <use xlink:href="#path-3"></use>
                </mask>
                <g id="Mask" stroke-linejoin="round">
                    <use fill="#FFFFFF" xlink:href="#path-3"></use>
                    <use stroke="#162CB9" stroke-width="1" fill-opacity="0.8" fill="#162CB9" xlink:href="#path-3"></use>
                </g>
                <polygon fill="#FFFFFF" opacity="0.100000001" mask="url(#mask-4)" points="46.372036 2.02258791 58.5821307 6.92184932 65.6445314 2.02258791 55.1916711 -5.9793826"></polygon>
                <polygon fill="#FFFFFF" opacity="0.100000001" mask="url(#mask-4)" points="1.37203601 51.0225879 13.5821307 55.9218493 20.6445314 51.0225879 10.1916711 43.0206174"></polygon>
            </g>
            <path d="M15.4602058,72.5130493 L1.73491681,65.6590493 C-0.578305605,64.5040493 -0.578305605,60.0720493 1.73491681,55.7600493 C4.04898564,51.4480493 7.80109504,48.8890493 10.1143175,50.0440493 L19.6499061,54.8070493 L45.8858941,5.91404932 C48.1991166,1.60304932 51.7425799,-0.719774955 54.2644484,0.199049324 C56.7863169,1.1178736 65.8243796,3.93181321 63.5103108,8.24381321 L23.8396064,66.7980493 C22.7282778,68.8680493 21.2208321,70.6340493 19.6499061,71.7060493 C18.0789801,72.7780493 16.5715344,73.0680493 15.4602058,72.5130493 Z" id="Fill-2" stroke="#162CB9" stroke-linejoin="round"></path>
            <g id="Fill-2" stroke-linejoin="round">
                <use fill="#FFFFFF" xlink:href="#path-5"></use>
                <use stroke="#162CB9" stroke-width="1" fill="#162CB9" xlink:href="#path-5"></use>
            </g>
        </g>
    </g>
</svg>