<?xml version="1.0" encoding="UTF-8"?>
<svg width="196px" height="196px" viewBox="0 0 196 196" version="1.1" xmlns="http://www.w3.org/2000/svg" xmlns:xlink="http://www.w3.org/1999/xlink">
    <title>step-3-shadow</title>
    <g id="step-3-shadow" stroke="none" stroke-width="1" fill="none" fill-rule="evenodd" opacity="0.200000003">
        <path d="M47.5385027,167.982658 L58.2111456,173.318979 C59.3372556,173.882034 60.6627444,173.882034 61.7888544,173.318979 L72.9617913,167.732511 C74.1400326,167.14339 75.5327939,167.172157 76.6857044,167.809427 L80.9895905,170.188395 C82.1495098,170.829539 83.5516895,170.854532 84.7337205,170.255131 L138.789716,142.843677 C139.774862,142.344116 140.168506,141.140523 139.668945,140.155377 C139.474981,139.772876 139.1632,139.462855 138.779608,139.271059 L137.909861,138.836185 C136.921904,138.342207 136.521455,137.140861 137.015433,136.152904 C137.208961,135.765849 137.522806,135.452004 137.909861,135.258476 L148.711603,129.857605 C149.69956,129.363627 150.100009,128.162281 149.60603,127.174324 C149.433602,126.829467 149.165168,126.541801 148.833047,126.345961 L138.269376,120.116919 C137.089848,119.421391 135.636503,119.377563 134.417207,120.000751 L47.5227169,164.41293 C46.5391674,164.915626 46.1493591,166.120467 46.6520559,167.104017 C46.8462458,167.483958 47.1568585,167.791836 47.5385027,167.982658 Z" id="Path-119" fill="#162CB9"></path>
    </g>
</svg>