<?xml version="1.0" encoding="UTF-8"?>
<svg width="196px" height="196px" viewBox="0 0 196 196" version="1.1" xmlns="http://www.w3.org/2000/svg" xmlns:xlink="http://www.w3.org/1999/xlink">
    <title>step-1</title>
    <defs>
        <path d="M141.105573,1.4472136 L2.21114562,70.8944272 C0.856009505,71.5719952 3.36716888e-15,72.9570477 3.55271368e-15,74.472136 L7.10542736e-15,96.763932 C7.24069811e-15,97.8685015 0.8954305,98.763932 2,98.763932 C2.31049019,98.763932 2.61671632,98.6916418 2.89442719,98.5527864 L141.788854,29.1055728 C143.14399,28.4280048 144,27.0429523 144,25.527864 L144,3.23606798 C144,2.13149848 143.104569,1.23606798 142,1.23606798 C141.68951,1.23606798 141.383284,1.30835816 141.105573,1.4472136 Z" id="path-1"></path>
        <path d="M61.9196679,64.5241362 L61.9196679,45.6614208" id="path-3"></path>
    </defs>
    <g id="step-1" stroke="none" stroke-width="1" fill="none" fill-rule="evenodd">
        <g id="Group" transform="translate(10, 32)">
            <path d="M160,-0.559016994 L176.5,7.69098301 L176.5,52.309017 L16,132.559017 L-0.5,124.309017 L-0.5,79.690983 L160,-0.559016994 Z" id="Path-55" stroke="#162CB9" fill="#FFFFFF" stroke-linejoin="round"></path>
            <polygon id="Path-80" fill="#162CB9" opacity="0.200000003" points="0 80 16 88.0446881 16 132 0 124"></polygon>
            <path d="M0,80.2134066 L16,88.2134066 L16,132.213407" id="Path-3" stroke="#162CB9" stroke-linejoin="round"></path>
            <line x1="16" y1="88.2134066" x2="176" y2="8.2134066" id="Path-4" stroke="#162CB9" stroke-linejoin="round"></line>
            <g id="Path-60" transform="translate(24, 20)">
                <mask id="mask-2" fill="white">
                    <use xlink:href="#path-1"></use>
                </mask>
                <g id="Mask" stroke-linejoin="round">
                    <use fill="#FFFFFF" xlink:href="#path-1"></use>
                    <path stroke="#162CB9" stroke-width="1" d="M142,0.736067977 C142.690356,0.736067977 143.315356,1.01589001 143.767767,1.46830102 C144.220178,1.92071204 144.5,2.54571204 144.5,3.23606798 L144.5,25.527864 C144.5,26.3801012 144.259247,27.1957658 143.827929,27.893654 C143.39661,28.5915423 142.774725,29.1716544 142.012461,29.5527864 L3.11803399,99 C2.7708954,99.1735693 2.38811274,99.263932 2,99.263932 C1.30964406,99.263932 0.684644063,98.98411 0.232233047,98.531699 C-0.220177969,98.079288 -0.5,97.454288 -0.5,96.763932 L-0.5,74.472136 C-0.5,73.6198988 -0.259247327,72.8042342 0.172071362,72.106346 C0.603390052,71.4084577 1.22527476,70.8283456 1.98753882,70.4472136 L140.881966,1 C141.229105,0.826430707 141.611887,0.736067977 142,0.736067977 Z" fill-opacity="0.1" fill="#162CB9"></path>
                </g>
                <path d="M6.924625,75.3333191 L9.41792366,74.0895501 L9.41792366,87.528933 L6.924625,88.772702 L6.924625,75.3333191 Z M6.924625,86.2576175 L9.41792366,85.0138485 L9.41792366,87.528933 L6.924625,88.772702 L6.924625,86.2576175 Z M6.924625,75.3333191 L9.41792366,74.0895501 L9.41792366,76.6046346 L6.924625,77.8484036 L6.924625,75.3333191 Z M14.7060634,75.4765045 L17.0133137,74.3255448 L17.0133137,74.691528 C17.0133137,74.9821146 16.993585,75.2803429 16.9541278,75.5862128 C17.1758875,75.0126104 17.4835958,74.4860788 17.8772526,74.0066182 C18.2709095,73.5271575 18.7575905,73.1428357 19.3372958,72.8536528 C19.9145037,72.5657156 20.4108826,72.4744924 20.8264324,72.5799833 C21.2419822,72.6854741 21.5574321,72.9670434 21.7727821,73.4246912 C21.9881321,73.882339 22.0958071,74.4913455 22.0958071,75.2517106 L22.0958071,81.2046373 L19.7793169,82.3602063 L19.7793169,76.8149609 C19.7793169,76.1877897 19.6652321,75.7539728 19.4370627,75.5135102 C19.2088932,75.2730476 18.8907795,75.2545951 18.4827216,75.4581526 C18.2050225,75.5966814 17.954752,75.8088735 17.7319101,76.094729 C17.5090682,76.3805845 17.3351317,76.7090907 17.2101005,77.0802477 C17.0850693,77.4514047 17.0225537,77.8338741 17.0225537,78.2276561 L17.0225537,83.7354032 L14.7060634,84.8909722 L14.7060634,75.4765045 Z M27.4959427,78.8620918 C26.7056323,79.256334 26.0024358,79.408729 25.3863533,79.3192767 C24.7702708,79.2298245 24.2889173,78.8911217 23.9422929,78.3031684 C23.5956684,77.7152152 23.4223562,76.8900629 23.4223562,75.8277117 C23.4223562,74.8361572 23.593296,73.875675 23.9351756,72.946265 C24.2770552,72.016855 24.7541633,71.1914291 25.3664998,70.4699873 C25.9788364,69.7485455 26.6736669,69.1939425 27.4509914,68.8061782 C28.2569515,68.4041292 28.9524896,68.267954 29.5376057,68.3976526 C30.1227217,68.5273511 30.5691547,68.9018729 30.8769046,69.521218 C31.1846545,70.1405631 31.3385295,70.9671119 31.3385295,72.0008645 L31.3385295,72.5417396 L25.7725599,75.3182944 C25.7725599,75.7520745 25.8491852,76.1037325 26.0024358,76.3732683 C26.1556865,76.6428042 26.3627122,76.811718 26.6235129,76.8800098 C26.8843137,76.9483016 27.1782869,76.90085 27.5054324,76.7376552 C27.8858536,76.5478841 28.2083375,76.27012 28.4728842,75.904363 C28.737431,75.538606 28.9000881,75.1293804 28.9608556,74.6766863 L31.2950766,73.5122723 C31.2388042,74.1915136 31.0472201,74.8756073 30.7203243,75.5645534 C30.3934285,76.2534996 29.952656,76.8863576 29.3980069,77.4631276 C28.8433579,78.0398977 28.2093365,78.506219 27.4959427,78.8620918 Z M28.9740912,71.8964111 C28.958941,71.3429945 28.810352,70.9677879 28.5283242,70.7707915 C28.2462964,70.5737951 27.8818579,70.5867511 27.4350087,70.8096595 C26.9786698,71.0373017 26.5966254,71.3999247 26.2888755,71.8975283 C25.9811256,72.395132 25.8036928,72.9297729 25.7565772,73.5014511 L28.9740912,71.8964111 Z M36.4301107,74.4053288 C35.6398003,74.799571 34.9366039,74.951966 34.3205213,74.8625138 C33.7044388,74.7730615 33.2230854,74.4343588 32.8764609,73.8464055 C32.5298364,73.2584522 32.3565242,72.4333 32.3565242,71.3709487 C32.3565242,70.3793943 32.527464,69.418912 32.8693436,68.489502 C33.2112232,67.560092 33.6883313,66.7346661 34.3006679,66.0132243 C34.9130044,65.2917825 35.607835,64.7371795 36.3851594,64.3494153 C37.1911196,63.9473663 37.8866577,63.8111911 38.4717737,63.9408896 C39.0568898,64.0705882 39.5033228,64.44511 39.8110727,65.0644551 C40.1188226,65.6838002 40.2726975,66.510349 40.2726975,67.5441015 L40.2726975,68.0849767 L34.7067279,70.8615315 C34.7067279,71.2953116 34.7833532,71.6469695 34.9366039,71.9165054 C35.0898545,72.1860412 35.2968802,72.354955 35.557681,72.4232468 C35.8184817,72.4915386 36.1124549,72.4440871 36.4396005,72.2808922 C36.8200216,72.0911211 37.1425056,71.8133571 37.4070523,71.4476001 C37.671599,71.081843 37.8342561,70.6726175 37.8950236,70.2199233 L40.2292446,69.0555094 C40.1729722,69.7347507 39.9813881,70.4188444 39.6544923,71.1077905 C39.3275965,71.7967366 38.886824,72.4295947 38.332175,73.0063647 C37.7775259,73.5831347 37.1435045,74.0494561 36.4301107,74.4053288 Z M37.9082593,67.4396481 C37.893109,66.8862315 37.74452,66.511025 37.4624922,66.3140286 C37.1804644,66.1170321 36.816026,66.1299881 36.3691768,66.3528965 C35.9128378,66.5805388 35.5307934,66.9431617 35.2230435,67.4407654 C34.9152936,67.938369 34.7378609,68.4730099 34.6907452,69.0446881 L37.9082593,67.4396481 Z M44.8286091,70.2157818 C44.1516759,70.5534665 43.547289,70.6652204 43.0154486,70.5510436 C42.4836081,70.4368669 42.0666432,70.0769937 41.7645538,69.4714241 C41.4624645,68.8658546 41.3114198,68.0197947 41.3114198,66.9332446 C41.3114198,65.8506943 41.4753255,64.8481731 41.803137,63.9256809 C42.1309485,63.0031886 42.5629388,62.2181187 43.0991079,61.570471 C43.635277,60.9228233 44.2114445,60.4453139 44.8276102,60.1379429 C45.376682,59.8640413 45.8502106,59.7716174 46.2481961,59.8606712 C46.6461816,59.9497251 46.9630466,60.1624416 47.1987912,60.4988208 C47.1591674,60.2843976 47.1393556,59.9851949 47.1393556,59.6012125 L47.1393556,55.2724113 L49.4558458,54.1168422 L49.4558458,67.5562252 L47.1393556,68.7117942 L47.1393556,68.3842092 C47.1393556,68.0266257 47.1591674,67.7291558 47.1987912,67.4917997 C47.0006725,68.0070111 46.7049512,68.5155635 46.3116274,69.017457 C45.9183035,69.5193505 45.4239641,69.9187921 44.8286091,70.2157818 Z M45.4799035,67.7315862 C45.8228653,67.5605015 46.1316141,67.2843394 46.40615,66.9030998 C46.6806859,66.5218603 46.8948705,66.075431 47.0487038,65.563812 C47.2025371,65.052193 47.2794538,64.5155964 47.2794538,63.9540222 C47.2794538,63.0820622 47.1130507,62.4684035 46.7802447,62.113046 C46.4474386,61.7576885 46.0139915,61.7132233 45.4799035,61.9796503 C45.133945,62.1522299 44.8226156,62.4278294 44.5459154,62.8064488 C44.2692152,63.1850682 44.0539068,63.6288582 43.8999902,64.1378189 C43.7460737,64.6467795 43.6691154,65.1858467 43.6691154,65.7550206 C43.6691154,66.3255944 43.7460737,66.7899311 43.8999902,67.1480306 C44.0539068,67.5061302 44.270006,67.7356648 44.5482878,67.8366343 C44.8265697,67.9376039 45.1371082,67.9025878 45.4799035,67.7315862 Z M56.8511206,64.2184149 C56.3866238,64.4501267 55.945019,64.5501245 55.5263059,64.5184084 C55.1075929,64.4866922 54.7714987,64.307617 54.5180234,63.9811826 C54.264548,63.6547483 54.1378103,63.187745 54.1378103,62.5801729 C54.1378103,61.5908184 54.4154678,60.7249938 54.9707828,59.9826991 C55.5260978,59.2404045 56.2794899,58.5608428 57.2309591,57.9440139 L58.3450021,57.2265868 C58.6445109,57.0297806 58.8577382,56.8391171 58.984684,56.6545964 C59.1116298,56.4700757 59.1751027,56.2656205 59.1751027,56.0412309 C59.1751027,55.7370448 59.073879,55.5340014 58.8714317,55.4321005 C58.6689844,55.3301996 58.3941155,55.3658711 58.0468251,55.5391151 C57.6589121,55.7326235 57.3428795,56.0112692 57.0987273,56.3750521 C56.8545752,56.738835 56.7127705,57.148258 56.6733132,57.603321 L54.3211117,58.7767044 C54.3668954,58.0972956 54.5452022,57.424425 54.8560321,56.7580926 C55.166862,56.0917602 55.5886551,55.4830692 56.1214112,54.9320197 C56.6541673,54.3809702 57.2680855,53.9320769 57.9631658,53.5853398 C58.7661291,53.1847857 59.4254981,53.0190555 59.9412726,53.088149 C60.4570471,53.1572426 60.8357618,53.4405511 61.0774167,53.9380745 C61.3190715,54.4355979 61.4398989,55.1342389 61.4398989,56.0339976 L61.4398989,61.578043 L59.2859826,62.6525129 L59.2859826,62.3138285 C59.2859826,62.0426409 59.3110387,61.742455 59.3611511,61.4132707 C59.1343968,62.0067638 58.812121,62.546462 58.3943236,63.0323653 C57.9765263,63.5182686 57.4621253,63.9136185 56.8511206,64.2184149 Z M57.5710905,61.871553 C57.880755,61.7170785 58.1614093,61.4923794 58.4130533,61.1974559 C58.6646974,60.9025324 58.8621501,60.5694949 59.0054115,60.1983434 C59.148673,59.8271919 59.2203037,59.4466252 59.2203037,59.0566431 L59.2203037,58.1800833 C59.144386,58.3001507 59.0402904,58.4200751 58.9080171,58.5398565 C58.7757437,58.6596379 58.588072,58.8084544 58.3450021,58.986306 L57.799593,59.3834747 C57.3677275,59.6953041 57.0385009,60.0033805 56.8119131,60.3077039 C56.5853252,60.6120272 56.4720313,60.936181 56.4720313,61.2801652 C56.4720313,61.6319491 56.5751279,61.8584071 56.7813212,61.9595393 C56.9875145,62.0606715 57.2507709,62.0313427 57.5710905,61.871553 Z" id="Combined-Shape" fill="#162CB9" fill-rule="nonzero" mask="url(#mask-2)"></path>
                <g id="Path-63" stroke-linecap="round" stroke-linejoin="round" mask="url(#mask-2)">
                    <use fill="#FFFFFF" xlink:href="#path-3"></use>
                    <use stroke="#162CB9" stroke-width="1" fill-opacity="0.1" fill="#162CB9" xlink:href="#path-3"></use>
                </g>
            </g>
        </g>
    </g>
</svg>